<svg id="visual" viewBox="0 0 900 600" width="900" height="600" xmlns="http://www.w3.org/2000/svg" xmlns:xlink="http://www.w3.org/1999/xlink" version="1.1"><rect x="0" y="0" width="900" height="600" fill="#FFFFFF"></rect><g fill="#CCCCCC"><circle r="38" cx="219" cy="558"></circle><circle r="5" cx="335" cy="148"></circle><circle r="13" cx="45" cy="417"></circle><circle r="27" cx="787" cy="190"></circle><circle r="29" cx="771" cy="10"></circle><circle r="28" cx="131" cy="366"></circle><circle r="29" cx="89" cy="280"></circle><circle r="13" cx="471" cy="164"></circle><circle r="33" cx="279" cy="223"></circle><circle r="17" cx="19" cy="114"></circle><circle r="9" cx="851" cy="596"></circle><circle r="4" cx="558" cy="39"></circle><circle r="13" cx="552" cy="213"></circle><circle r="13" cx="460" cy="42"></circle><circle r="6" cx="362" cy="441"></circle><circle r="24" cx="877" cy="505"></circle><circle r="29" cx="672" cy="103"></circle><circle r="34" cx="267" cy="416"></circle><circle r="15" cx="879" cy="210"></circle><circle r="8" cx="294" cy="495"></circle><circle r="27" cx="663" cy="407"></circle><circle r="35" cx="91" cy="69"></circle><circle r="21" cx="407" cy="310"></circle><circle r="4" cx="542" cy="471"></circle><circle r="35" cx="805" cy="87"></circle><circle r="13" cx="634" cy="314"></circle><circle r="24" cx="487" cy="533"></circle><circle r="13" cx="469" cy="436"></circle><circle r="8" cx="608" cy="598"></circle><circle r="24" cx="643" cy="14"></circle><circle r="24" cx="898" cy="329"></circle><circle r="23" cx="747" cy="399"></circle><circle r="18" cx="10" cy="257"></circle><circle r="12" cx="382" cy="224"></circle><circle r="25" cx="250" cy="66"></circle><circle r="22" cx="687" cy="484"></circle><circle r="15" cx="629" cy="191"></circle><circle r="10" cx="802" cy="288"></circle><circle r="11" cx="706" cy="238"></circle><circle r="30" cx="805" cy="456"></circle><circle r="36" cx="488" cy="324"></circle><circle r="28" cx="738" cy="572"></circle><circle r="17" cx="101" cy="511"></circle><circle r="28" cx="394" cy="79"></circle><circle r="20" cx="116" cy="161"></circle><circle r="16" cx="324" cy="49"></circle><circle r="33" cx="225" cy="151"></circle><circle r="5" cx="727" cy="319"></circle><circle r="27" cx="186" cy="298"></circle><circle r="25" cx="263" cy="337"></circle><circle r="5" cx="320" cy="596"></circle><circle r="9" cx="404" cy="513"></circle><circle r="30" cx="45" cy="595"></circle><circle r="22" cx="805" cy="536"></circle><circle r="5" cx="199" cy="448"></circle><circle r="27" cx="883" cy="410"></circle><circle r="13" cx="133" cy="590"></circle><circle r="28" cx="154" cy="228"></circle><circle r="23" cx="44" cy="11"></circle><circle r="21" cx="543" cy="118"></circle><circle r="13" cx="897" cy="59"></circle><circle r="5" cx="458" cy="249"></circle><circle r="36" cx="145" cy="7"></circle><circle r="15" cx="557" cy="371"></circle><circle r="35" cx="16" cy="516"></circle><circle r="7" cx="339" cy="356"></circle><circle r="23" cx="416" cy="598"></circle><circle r="18" cx="885" cy="134"></circle><circle r="24" cx="173" cy="93"></circle><circle r="36" cx="43" cy="190"></circle><circle r="22" cx="610" cy="511"></circle><circle r="18" cx="12" cy="343"></circle></g></svg>