<?xml version="1.0" standalone="no"?>
<svg xmlns:xlink="http://www.w3.org/1999/xlink" id="wave" style="transform:rotate(0deg); transition: 0.3s" viewBox="0 0 1440 210" version="1.1" xmlns="http://www.w3.org/2000/svg"><defs><linearGradient id="sw-gradient-0" x1="0" x2="0" y1="1" y2="0"><stop stop-color="rgba(207.643, 0, 0, 1)" offset="0%"/><stop stop-color="rgba(0, 0, 0, 1)" offset="100%"/></linearGradient></defs><path style="transform:translate(0, 0px); opacity:1" fill="url(#sw-gradient-0)" d="M0,168L1440,21L2880,168L4320,126L5760,84L7200,21L8640,42L10080,63L11520,84L12960,189L14400,21L15840,42L17280,21L18720,105L20160,189L21600,0L23040,0L24480,189L25920,63L27360,21L28800,126L30240,147L31680,189L33120,0L34560,0L34560,210L33120,210L31680,210L30240,210L28800,210L27360,210L25920,210L24480,210L23040,210L21600,210L20160,210L18720,210L17280,210L15840,210L14400,210L12960,210L11520,210L10080,210L8640,210L7200,210L5760,210L4320,210L2880,210L1440,210L0,210Z"/></svg>